<svg xmlns="http://www.w3.org/2000/svg" xmlns:xlink="http://www.w3.org/1999/xlink" width="14" height="18" version="1.1" viewBox="0 0 14 18"><title>Dash</title><desc>Created with Sketch.</desc><g id="Design" fill="none" fill-rule="evenodd" stroke="none" stroke-width="1"><g id="Dashboard" fill="#575B7E" fill-rule="nonzero" transform="translate(-65.000000, -268.000000)"><g id="Sidebar"><g id="Links" transform="translate(60.000000, 246.000000)"><g id="Icons" transform="translate(0.000000, 22.000000)"><path id="Dash" d="M19,7 L19,17 C19,17.6 18.6,18 18,18 C17.4,18 17,17.6 17,17 L17,7 C17,6.4 17.4,6 18,6 C18.6,6 19,6.4 19,7 Z M12,0 C11.4,0 11,0.4 11,1 L11,17 C11,17.6 11.4,18 12,18 C12.6,18 13,17.6 13,17 L13,1 C13,0.4 12.6,0 12,0 Z M6,10 C5.4,10 5,10.4 5,11 L5,17 C5,17.6 5.4,18 6,18 C6.6,18 7,17.6 7,17 L7,11 C7,10.4 6.6,10 6,10 Z"/></g></g></g></g></g></svg>